<?xml version="1.0" encoding="UTF-8" standalone="no"?>
<svg
     xmlns="http://www.w3.org/2000/svg"
     width="40"
     height="40"
     fill="currentColor"
     class="svg-icon logo maskable-logo"
     viewBox="0 0 244 255"
     focusable="false"
     >
    <!-- Copyright (c) 2023 Francesco Ugolini - All right reserved -->
	<rect style="fill:#000000;stroke-width:6.375" id="rect2" width="254.74985" height="256.59229" x="-5.5" y="0" />
	<rect style="fill:#ffffff;stroke-width:4.32174" width="88.530037" height="157.7778" x="74.226654" y="55.702377" />
	<path
		  fill-rule="evenodd"
		  d="m 117.88013,32.5125 c -28.708676,0 -57.417349,7.124656 -71.052657,21.373967 -27.269964,28.499303 -27.269964,120.014233 0,148.506683 27.269961,28.49247 114.837317,28.49247 142.100727,0 27.26339,-28.49245 27.26339,-120.00738 0,-148.506683 C 175.29682,39.637156 146.58814,32.5125 117.88013,32.5125 Z m -8.8217,27.136163 h 22.07619 c 13.51929,1.16244 23.68466,14.819225 24.09824,28.14653 0,10.129742 0,9.836562 0,16.916687 -5.66635,0.0164 -16.48585,0.0993 -22.69624,0.003 0,-3.82914 0,-5.806035 0,-9.829706 -0.51649,-4.704561 -3.12124,-9.802995 -9.27723,-9.92424 h -6.44961 c -8.06466,-0.256908 -12.30672,9.929 -6.14615,18.086626 14.12034,15.59877 19.53369,20.86777 32.67742,37.04328 19.28922,23.1303 13.8752,52.45296 -12.20381,56.56021 h -22.07619 c -7.97419,-0.27674 -24.941143,-2.99275 -25.524492,-31.34137 0,-8.79263 0.207777,-1.58098 -0.0012,-11.86689 7.405919,0 16.192215,-0.19385 22.767022,-0.19385 0,0 -0.003,4.42305 -0.003,7.73294 0.39261,5.8355 1.91784,9.46598 6.79636,10.16262 l 8.57851,-0.3877 c 6.71902,0.65554 13.07228,-7.8987 2.79681,-18.78948 -9.12978,-10.83531 -29.022654,-31.34892 -32.408704,-35.1438 l 0.0012,0.011 C 75.994959,94.333491 86.014156,59.552079 109.06105,59.648663 Z"
		  style="stroke-width:0.67006" 
		  />
</svg>
