<?xml version="1.0" encoding="UTF-8" standalone="no"?>
<svg
     xmlns="http://www.w3.org/2000/svg"
     width="40"
     height="40"
     fill="currentColor"
     class="svg-icon logo"
     viewBox="0 0 244 255"
     focusable="false"
     >
    <!-- Copyright (c) 2023 Francesco Ugolini - All right reserved -->
    <path
          fill-rule="evenodd"
          d="m 139.774,0.381005 c -43.8,0 -87.6,10.401 -108.403,31.203 -41.605,41.604995 -41.605,175.203995 0,216.798995 41.605,41.595 175.204,41.595 216.799,0 41.595,-41.595 41.595,-175.194 0,-216.798995 -20.797,-20.802 -64.597,-31.203 -108.396,-31.203 z m -13.459,39.615 h 33.681 c 20.626,1.697 36.135,21.633995 36.766,41.089995 0,14.78801 0,14.36001 0,24.696 -8.645,0.024 -25.152,0.14501 -34.627,0.004 0,-5.59 0,-8.476 0,-14.35 -0.788,-6.868 -4.762,-14.311 -14.154,-14.488 h -9.84 c -12.304,-0.375 -18.776,14.495 -9.377,26.404 21.543,22.772 29.802,30.464 49.855,54.078 29.429,33.767 21.169,76.574 -18.619,82.57 h -33.681 c -12.166,-0.404 -38.052,-4.36899 -38.942,-45.754 0,-12.836 0.317,-2.308 -0.002,-17.324 11.299,0 24.704,-0.283 34.735,-0.283 0,0 -0.004,6.457 -0.004,11.289 0.599,8.519 2.926,13.819 10.369,14.836 l 13.088,-0.566 c 10.251,0.957 19.944,-11.531 4.267,-27.43 -13.929,-15.818 -44.279,-45.765 -49.445,-51.305 l 0.002,0.016 C 75.871,90.631 91.157,39.855005 126.319,39.996005 Z"
          transform="matrix(0.87392363,0,0,0.91332058,0.02108468,0.0330224)"
          />
</svg>
